<?xml version="1.0" encoding="UTF-8" standalone="no"?><!DOCTYPE svg PUBLIC "-//W3C//DTD SVG 1.1//EN" "http://www.w3.org/Graphics/SVG/1.1/DTD/svg11.dtd"><svg width="100%" height="100%" viewBox="0 0 396 321" version="1.1" xmlns="http://www.w3.org/2000/svg" xmlns:xlink="http://www.w3.org/1999/xlink" xml:space="preserve" xmlns:serif="http://www.serif.com/" style="fill-rule:evenodd;clip-rule:evenodd;stroke-linejoin:round;stroke-miterlimit:2;"><g id="vector-stickman"><path d="M324.617,1.52c35.856,-0 69.133,33.277 69.133,69.133c0,35.856 -18.778,65.281 -52.466,77.559c-11.432,4.167 -40.922,0.146 -40.922,0.146c-0,-0 16.161,30.314 27.064,41.775c12.84,13.498 28.994,-4.115 45.811,9.486c10.634,8.6 0.857,29.528 -10.07,34.192c-11.499,4.908 -37.357,7.985 -58.922,-4.745c-10.56,-6.233 -29.915,-36.401 -29.915,-36.401c-0,0 -18.837,10.664 -32.262,23.714c-19.4,18.861 -65.149,64.45 -90.19,87.401c-26.534,24.319 -83.789,15.229 -93.262,8.439c-4.863,-3.486 -11.521,-0.351 -10.411,-26.929c0.735,-17.598 12.373,-23.301 23.612,-22.767c18.733,0.891 44.696,15.796 60.49,-0.97c6.136,-6.514 22.504,-26.936 18.169,-32.393c-4.454,-5.606 -7.592,-6.128 -60.733,7.781c-30.663,8.025 -70.153,-6.067 -80.15,-16.208c-8.481,-8.604 -8.815,-22.847 -8.053,-27.563c1.101,-6.814 12.572,-24.666 23.388,-24.413c26.419,0.617 78.983,13.558 109.149,4.611c29.568,-8.769 82.852,-56.588 71.85,-58.292c-14.138,-2.189 -42.842,-19.887 -47.787,-34.569c-4.944,-14.683 -1.041,-75.218 18.214,-70.191c36.158,9.44 24.594,38.969 27.401,49.74c4.198,16.11 17.73,17.37 27.183,23.092c26.101,15.8 14.845,11.815 14.622,10.566c-5.021,-28.128 -1.828,-30.894 1.591,-43.895c8.333,-31.689 41.61,-48.299 77.466,-48.299Z" style="fill:#f33;"/><path d="M326.042,8.333c35.069,0 63.541,28.472 63.541,63.542c0,35.07 -28.472,67.708 -63.541,67.708c-3.031,0 -34.803,-0.129 -31.874,8.293c7.433,21.371 15.807,33.725 26.47,44.935c12.559,13.202 40.584,0.05 48.882,9.278c8.944,9.946 -5.647,19.472 -13.925,21.216c-9.888,2.083 -24.311,3.734 -45.404,-8.716c-10.327,-6.097 -18.821,-33.563 -33.334,-35.603c-10.47,-1.473 -22.499,14.505 -35.629,27.269c-18.975,18.447 -59.645,63.036 -84.137,85.485c-25.952,23.785 -77.876,23.139 -87.141,16.498c-4.757,-3.41 -7.193,-10.752 -6.108,-18.282c0.719,-4.986 0.641,-10.054 10.868,-14.117c18.322,-7.28 51.867,7.299 67.314,-9.099c6.002,-6.371 38.312,-34.497 21.846,-47.985c-16.915,-13.855 -19.651,-10.068 -71.627,3.536c-29.99,7.849 -54.762,-2.605 -67.103,-7.702c-7.367,-3.043 -7.685,-18.271 -6.94,-22.883c1.077,-6.665 8.222,-11.899 18.801,-11.652c25.839,0.603 78.964,10.836 108.832,2.761c39.036,-10.554 51.762,-34.548 63.128,-47.155c6.458,-7.163 14.251,-22.634 5.069,-28.486c-9.753,-6.216 -33.752,-19.451 -38.588,-33.812c-4.836,-14.36 -5.674,-53.752 13.739,-52.35c14.988,1.083 1.6,34.039 8.421,44.574c8.849,13.668 27.569,21.064 36.815,26.661c25.529,15.453 31.101,12.108 30.603,10.97c-4.912,-11.209 -2.52,-18.194 -2.52,-31.342c-0,-35.07 28.472,-63.542 63.542,-63.542Z" style="fill:#800;"/></g></svg>