<?xml version="1.0" encoding="UTF-8" standalone="no"?><!DOCTYPE svg PUBLIC "-//W3C//DTD SVG 1.1//EN" "http://www.w3.org/Graphics/SVG/1.1/DTD/svg11.dtd">
<!--suppress XmlHighlighting, XmlHighlighting -->
<svg width="100%" height="100%" viewBox="0 0 1638 1330" version="1.1" xmlns="http://www.w3.org/2000/svg"
     xml:space="preserve"
     style="fill-rule:evenodd;clip-rule:evenodd;stroke-linejoin:round;stroke-miterlimit:2;"><g id="vector-stickman"><path d="M1348.62,2.033c149.4,0 288.054,138.654 288.054,288.054c-0,149.4 -78.242,272.005 -218.609,323.163c-47.633,17.362 -170.508,0.608 -170.508,0.608c0,0 67.338,126.309 112.767,174.063c53.5,56.241 120.808,-17.146 190.879,39.525c44.308,35.833 3.571,123.033 -41.958,142.466c-47.913,20.45 -155.655,33.271 -245.509,-19.77c-44,-25.971 -124.646,-151.671 -124.646,-151.671c0,-0 -78.487,44.433 -134.425,98.808c-80.833,78.588 -271.454,268.542 -375.791,364.171c-110.559,101.329 -349.121,63.454 -388.592,35.162c-20.262,-14.525 -48.004,-1.462 -43.379,-112.204c3.062,-73.325 51.554,-97.087 98.383,-94.862c78.054,3.712 186.234,65.816 252.042,-4.042c25.567,-27.142 93.767,-112.233 75.704,-134.971c-18.558,-23.358 -31.633,-25.533 -253.054,32.421c-127.763,33.438 -292.304,-25.279 -333.958,-67.533c-35.338,-35.85 -36.73,-95.196 -33.555,-114.846c4.588,-28.392 52.384,-102.775 97.45,-101.721c110.08,2.571 329.096,56.492 454.788,19.213c123.2,-36.538 345.217,-235.784 299.375,-242.884c-58.908,-9.121 -178.508,-82.862 -199.113,-144.037c-20.6,-61.179 -4.337,-313.409 75.892,-292.463c150.658,39.334 102.475,162.371 114.171,207.25c17.492,67.125 184.902,137.081 194.216,126.021c21.446,-25.465 -3.717,-88.141 11.601,-164.508c22.395,-111.654 148.375,-205.413 297.775,-205.413Z" style="fill:#f33;"/><path d="M1354.56,30.421c146.121,-0 264.754,118.633 264.754,264.758c0,146.125 -118.633,282.117 -264.754,282.117c-12.629,-0 -145.012,-0.538 -132.808,34.554c30.971,89.046 65.862,140.521 110.291,187.229c52.33,55.008 169.1,0.208 203.675,38.658c37.267,41.442 -23.529,81.134 -58.02,88.4c-41.2,8.68 -101.296,15.559 -189.184,-36.316c-43.029,-25.404 -78.421,-139.846 -138.891,-148.346c-43.625,-6.138 -93.746,60.437 -148.455,113.621c-79.062,76.862 -248.52,262.65 -350.57,356.187c-108.134,99.104 -324.484,96.413 -363.088,68.742c-19.821,-14.208 -29.971,-44.8 -25.45,-76.175c2.996,-20.775 2.671,-41.892 45.283,-58.821c76.342,-30.333 216.113,30.413 280.475,-37.912c25.009,-26.546 159.634,-143.738 91.025,-199.938c-70.479,-57.729 -81.879,-41.95 -298.445,14.733c-124.959,32.705 -228.175,-10.854 -279.596,-32.091c-30.696,-12.679 -32.021,-76.129 -28.917,-95.346c4.488,-27.771 34.258,-49.579 78.338,-48.55c107.662,2.512 329.016,45.15 453.466,11.504c162.65,-43.975 215.675,-143.95 263.034,-196.479c26.908,-29.846 59.379,-94.308 21.12,-118.692c-40.637,-25.9 -140.633,-81.046 -160.783,-140.883c-20.15,-59.833 -23.642,-223.967 57.246,-218.125c62.45,4.512 6.667,141.829 35.087,185.725c36.871,56.95 114.871,87.767 153.396,111.087c106.371,64.388 129.588,50.45 127.513,45.709c-20.467,-46.704 -10.5,-75.809 -10.5,-130.592c-0,-146.125 118.633,-264.758 264.758,-264.758Z" style="fill:#800;"/></g></svg>
